<svg xmlns="http://www.w3.org/2000/svg" viewBox="0 0 506 258"><defs><style>.cls-1{fill:#0077b6;}.cls-2{fill:none;stroke:#000;stroke-miterlimit:10;}</style></defs><g id="Layer_3" data-name="Layer 3"><path class="cls-1" d="M481.81,224.25a29.88,29.88,0,0,1-5.61,6.9q-10.8,9.91-29.61,9.91a47.56,47.56,0,0,1-5.52-.32,69.64,69.64,0,0,1-16.84-4.19l-12.48-5.86c-1.11-.47-2.21-.94-3.31-1.37l-1-.4-1-.34-1.9-.71c-1.25-.51-2.53-.81-3.77-1.24a16.36,16.36,0,0,0-1.86-.55l-1.85-.51-3.62-.8a46.32,46.32,0,0,0-13.35-.58,36.24,36.24,0,0,0-11.76,3.48,76.19,76.19,0,0,0-13,8.51c-2.37,1.81-4.85,3.76-7.57,5.7-1.36,1-2.79,1.91-4.32,2.81a47.18,47.18,0,0,1-4.79,2.55,40.09,40.09,0,0,1-10.9,3.37,36.94,36.94,0,0,1-11.31-.05,40.4,40.4,0,0,1-10.4-3.05l-2.38-1.14c-.75-.42-1.52-.83-2.26-1.26s-1.47-.88-2.15-1.36l-1-.71c-.35-.23-.69-.46-1-.71-5.36-3.87-9.79-8.22-14.56-11.9a44.4,44.4,0,0,0-15-8.09,32.86,32.86,0,0,0-7.5-1.23,49.5,49.5,0,0,0-7,.24c-1.17.18-2.29.2-3.44.44L248,222c-.57.11-1.14.23-1.72.33-1.14.13-2.3.49-3.48.66l-3.54.84a105.17,105.17,0,0,0-14.72,5.42c-8.33,3.67-16.44,10.2-26.05,7.36-8.58-2.55-4.8-14.52,1.54-17.58,4.82-2.33,10-3.2,14.72-6,1.73-1,14.72-8.71,18-9.83.84-.29,1.71-.54,2.57-.8s1.7-.56,2.61-.73,1.79-.37,2.69-.54c.45-.08.89-.18,1.35-.24l1.39-.14c.92-.09,1.85-.16,2.77-.23s1.88,0,2.81,0a40.67,40.67,0,0,1,5.61.55,39.33,39.33,0,0,1,10.71,3.55,45.35,45.35,0,0,1,9,6c5.34,4.56,9.36,9.55,13.61,13.89a74.14,74.14,0,0,0,6.52,6.09,38.31,38.31,0,0,0,7.08,4.67,29.23,29.23,0,0,0,3.75,1.53c.63.19,1.27.33,1.9.49s1.27.24,1.91.33a21.8,21.8,0,0,0,7.44-.44,23.31,23.31,0,0,0,6.54-2.61,35.85,35.85,0,0,0,5.52-4.1c.9-.79,1.79-1.63,2.71-2.51.47-.44.92-.88,1.38-1.36s.94-.92,1.42-1.41c1.93-1.91,3.92-4,6.06-6.22,4.26-4.4,9.15-9.35,15.62-13.46a47.1,47.1,0,0,1,10.66-5.05,45.78,45.78,0,0,1,11.81-2.22,53.69,53.69,0,0,1,22.35,3.9A66.72,66.72,0,0,1,413,208.93q2.89,1.24,9.46,6.47a31,31,0,0,0,19.4,6.85c4.49.93,10.7,3.33,13.43,4a46.85,46.85,0,0,0,15.39,1.65C474.55,227.61,478.21,226,481.81,224.25Z"/><path class="cls-2" d="M493.87,83q-2.3,12.72-4.33,25.17A152.13,152.13,0,0,0,487,133.29v69.14q0,13-5.19,21.82c-3.6,1.7-7.26,3.36-11.15,3.67a46.85,46.85,0,0,1-15.39-1.65c-2.73-.69-8.94-3.09-13.43-4h.43q14.22,0,19.06-10.41,3.56-7.12,3.56-22.88c0-3.9-.08-7.11-.26-9.66a33.12,33.12,0,0,1-18.8,5.59q-19.06,0-29.49-13.72-9.4-12.45-9.4-31.78,0-2,2.54-64c5.09-2.19,9.15-3.3,12.2-3.3q5.08,0,15,6.1-6.1,15.26-6.1,61,0,29.24,14.74,29.23,10.94,0,16.77-18.3a87.79,87.79,0,0,0,4.33-27.45v-31c0-.17-.29-3-.77-8.38q10.43-5.08,15.51-5.09C484.72,78.14,489,79.76,493.87,83Z"/><path class="cls-2" d="M184.5,15.48C165.8,27.58,149,42.84,141,66c-4.27-3.25-8.38-6.88-13-9.74-7.5-4.67-15.42-4.57-22.93,0S93.8,67.73,94.19,76.52c.37,8.12,4.88,13.94,11.55,18.76L121.45,76.6a123,123,0,0,1,9.49,31.77,8.16,8.16,0,0,1,.27,2.32c-1.59,10.25,5.81,16.46,10.76,23.67,13.69,19.95,23.25,41.56,26.14,65.72,1.46,12.21.89,24.44-3,36.31-.7,2.09-1.56,3.43-4.23,3.7q-43.57,4.51-79.5-20.42c-9.34-6.5-17.14-14.56-24.29-23.51-11.73-14.71-18.55-31.35-22.83-49.45-.81-3.43-4.64-6.26-7.34-9.12-4.55-4.82-9.39-9.39-13.92-14.23a4.22,4.22,0,0,1-.66-3.67c7.59-17.91,17.93-34,31.93-47.63a19.72,19.72,0,0,0,3.22-3.86C63.62,41.28,86.28,22.59,116.69,14,139.19,7.66,161.67,8.28,184.5,15.48Zm-110.29,188,.64.61.17.17-.09,1.85.52.07.43-1.28c2,1.36,4.05,2.64,6,4.11,20.85,16.1,44.34,23.92,70.78,23,4-.14,5.32-1.66,6-5.3,2.7-13.84,1.18-27.39-2.11-40.91-3.54-14.58-13.27-23.55-26.45-29.11-14.76-6.22-29-4.1-42.54,4-1.64,1-3.73,1.19-5.6,1.76a.52.52,0,0,0,.3.26c.72-1.57,1-3.57,2.22-4.62,12.29-11,26.8-14.43,42.84-11.7,4.5.77,8.87,2.28,13.91,3.61-.57-1.15-.81-1.73-1.12-2.25A178.66,178.66,0,0,0,98,100.41C88.42,92.84,84.5,82.69,85.56,70.79c.92-10.3,5-19.65,10.66-28.22,3.75-5.69,8-11.07,12.37-17.08-2.3,1.12-4.22,2-6.11,3-39.6,20.21-59.87,53-61.16,97-.65,22.1,6.32,42.61,19.25,60.76,4.13,5.81,8.88,11.17,13.36,16.74l-.14.26.28.09Z"/><path class="cls-2" d="M201.57,108.65a59.28,59.28,0,0,1,2-13,59.69,59.69,0,0,0,2-13c0-3.56-2.69-6.26-8-8.13A33.38,33.38,0,0,0,185,72.05q-7.05,0-7.05,4.57v2.54a364.53,364.53,0,0,0-2,42.2q0,15,2.54,44.73,1.53,16,17.7,16,4.64,0,8.47-5.84-3-10.42-3.05-15.25Zm1-72.82a18.54,18.54,0,0,0-12.2-4.45,14,14,0,0,0-9.78,3.56,11.75,11.75,0,0,0-3.94,9.15q0,6.61,5.71,11.18a19.38,19.38,0,0,0,12.34,4.58,13.25,13.25,0,0,0,9.4-3.56,12,12,0,0,0,3.81-9.15A14.07,14.07,0,0,0,202.59,35.83Z"/><path class="cls-2" d="M282.91,141.43q-13.49-6.1-26.69-11.94-14.49-8.13-14.49-18.3a41.44,41.44,0,0,1,2.79-15.25q3.82-9.15,10.94-9.15,11.94,0,11.94,15.25a12.34,12.34,0,0,1-1.78,5.59q-3,5.59-3.05,6.61c0,1.52,2,3.35,6,5.47s6.82,3.17,8.51,3.17a17,17,0,0,0,9.66-3.31l3-7.62a20.11,20.11,0,0,0,1.27-7.63,38.85,38.85,0,0,0-2-10.92Q286,84,272.62,75.86t-23.77-8.14q-14,0-23.38,13.73a47.64,47.64,0,0,0-8.4,27.2q0,24.39,29,41.68,1.27.51,12.2,3.81,9.66,3,9.66,3.94a10.82,10.82,0,0,0,.38,2.42,10,10,0,0,1,.38,2.28c0,3.22-2.45,5-7.37,5.34a40.82,40.82,0,0,1-19.06-3.31q-11.43-4.58-12.2-12.2c-1.7-.16-3.31-.25-4.83-.25q-16,0-16,11.19,0,7.11,30.5,18.55a45.83,45.83,0,0,0,17.53,3.31q18.82,0,30-9.66,10.17-8.9,10.16-20.84Q297.39,148,282.91,141.43Z"/><path class="cls-2" d="M388.13,98.48q-5.85-14.24-20.84-20.59-11.7-4.83-21.61-4.83c-2.54,0-5.67,1.11-9.4,3.3q-.51-15.56-.5-22.7,0-5.61,2.4-16.58t2.42-16.59q0-4.57-6.35-9T323.07,7Q312.9,7,312.9,16.14V20l-1,147.12a17.41,17.41,0,0,0,4.45,11.58,13.68,13.68,0,0,0,10.8,5.22,13.24,13.24,0,0,0,7.25-2.67c2.62-1.78,3.94-3.77,3.94-6A78.93,78.93,0,0,0,337,163.67a78.14,78.14,0,0,1-1.26-11.56V137.36q0-45.48,16.76-45.49,16.27,0,16.28,56.43v34.56q5.58,6.62,10.92,6.61,7.89,0,12.71-4.83V128Q392.45,109.17,388.13,98.48Z"/></g></svg>